<?xml version="1.0" encoding="UTF-8"?>
<svg version="1.1" xmlns="http://www.w3.org/2000/svg" width="256" height="256">
<path d="M0 0 C2.03657001 1.14121696 4.08247539 2.26591129 6.13671875 3.375 C18.13161702 10.00354342 30.0568065 16.72519165 41.87670898 23.66259766 C49.47185616 28.11846713 57.1013732 32.51177836 64.75 36.875 C65.61328918 37.36770386 65.61328918 37.36770386 66.49401855 37.87036133 C71.97841729 41.00024367 77.46504889 44.12620126 82.95263672 47.25048828 C86.23535625 49.11948698 89.51725255 50.98992453 92.79870605 52.86114502 C94.65837954 53.92090531 96.51911201 54.97878906 98.37988281 56.03662109 C99.49588867 56.67293457 100.61189453 57.30924805 101.76171875 57.96484375 C102.75131592 58.5280835 103.74091309 59.09132324 104.76049805 59.67163086 C107 61 107 61 108 62 C108.09396057 63.93306498 108.11743517 65.86958838 108.11352539 67.80493164 C108.11344986 69.04614273 108.11337433 70.28735382 108.11329651 71.56617737 C108.10818911 72.9308374 108.1029731 74.29549702 108.09765625 75.66015625 C108.095792 77.04878183 108.09436813 78.43740807 108.09336853 79.82603455 C108.08954387 83.48721115 108.07971403 87.1483483 108.06866455 90.80950928 C108.05844932 94.54292263 108.05387067 98.27634234 108.04882812 102.00976562 C108.03809171 109.33986177 108.02101591 116.66992536 108 124 C104.02214035 122.71481709 100.56664697 121.34133938 96.97265625 119.19921875 C96.02777344 118.64105469 95.08289063 118.08289063 94.109375 117.5078125 C93.10390625 116.90710938 92.0984375 116.30640625 91.0625 115.6875 C88.89793648 114.40879926 86.73255166 113.1314879 84.56640625 111.85546875 C83.4695752 111.20884277 82.37274414 110.5622168 81.24267578 109.89599609 C76.35990571 107.04103507 71.43258594 104.26771691 66.5 101.5 C58.6632778 97.09557051 50.87854572 92.61169363 43.125 88.0625 C33.74248192 82.55795634 24.28375397 77.20466564 14.76928711 71.93164062 C10.20603637 69.39403866 5.67261433 66.83749376 1.234375 64.0859375 C0.53836182 63.65450439 -0.15765137 63.22307129 -0.87475586 62.77856445 C-2.11995796 61.99711659 -3.35844933 61.20481424 -4.58813477 60.39916992 C-7.48663746 58.47602345 -7.48663746 58.47602345 -10.83374023 58.23339844 C-13.55189173 59.19530486 -15.93392772 60.48148829 -18.453125 61.88671875 C-19.53456787 62.48798584 -20.61601074 63.08925293 -21.73022461 63.70874023 C-22.90363671 64.36805347 -24.07689105 65.02764754 -25.25 65.6875 C-26.47071338 66.37000028 -27.69149891 67.05237152 -28.91235352 67.73461914 C-37.62299559 72.61392483 -46.26411894 77.60806652 -54.875 82.66137695 C-62.47050377 87.11801142 -70.1006325 91.51167494 -77.75 95.875 C-78.33150818 96.2067926 -78.91301636 96.53858521 -79.512146 96.88043213 C-82.4730125 98.56962014 -85.43434493 100.25798894 -88.39599609 101.94580078 C-93.85749669 105.05836065 -99.31695842 108.17448993 -104.77560425 111.29205322 C-105.95970682 111.96826148 -107.14388961 112.6443293 -108.32815552 113.32025146 C-116.77078405 118.13925107 -125.19539991 122.98806368 -133.58227539 127.90356445 C-138.89226104 131 -138.89226104 131 -140 131 C-140 110.21 -140 89.42 -140 68 C-135.9575 65.69 -131.915 63.38 -127.75 61 C-125.69821533 59.82739624 -125.69821533 59.82739624 -123.60498047 58.63110352 C-117.34439316 55.05315095 -111.08319153 51.47628351 -104.8203125 47.90234375 C-92.46376133 40.84982057 -80.12256916 33.7717314 -67.80395508 26.65307617 C-62.14829419 23.38684072 -56.48721133 20.13047446 -50.81640625 16.890625 C-50.21597 16.54718048 -49.61553375 16.20373596 -48.99690247 15.84988403 C-46.00512551 14.13980202 -43.00969321 12.43681546 -40.00610352 10.74755859 C-34.69833733 7.74925563 -29.47661613 4.71099008 -24.3984375 1.3359375 C-23.55079834 0.78969727 -22.70315918 0.24345703 -21.82983398 -0.31933594 C-20.29349052 -1.31837467 -18.77953206 -2.35322193 -17.29711914 -3.43066406 C-10.40152402 -7.8400364 -6.23748733 -4.06299325 0 0 Z " fill="#000000" transform="translate(148,6)"/>
<path d="M0 0 C1.81985774 1.223978 3.62231851 2.47422856 5.40625 3.75 C7.11244579 4.7279651 8.83127047 5.68425444 10.5625 6.6171875 C22.13714798 13.11745446 33.59389186 19.79506427 44.99731445 26.59082031 C53.14669967 31.44055271 61.35138998 36.18521185 69.59375 40.875 C78.67845447 46.04588417 87.7473866 51.24072553 96.78125 56.5 C97.76762451 57.07250488 98.75399902 57.64500977 99.77026367 58.23486328 C100.68912354 58.77095215 101.6079834 59.30704102 102.5546875 59.859375 C103.35052246 60.32311523 104.14635742 60.78685547 104.96630859 61.26464844 C105.77148926 61.75481445 106.57666992 62.24498047 107.40625 62.75 C108.48422852 63.23146484 109.56220703 63.71292969 110.67285156 64.20898438 C113.83100379 67.14485865 113.84691947 67.7602981 114.08740234 71.88574219 C114.08645345 74.02302192 114.05261233 76.16044939 113.9921875 78.296875 C113.98369781 79.4232135 113.97520813 80.549552 113.96646118 81.71002197 C113.93287314 85.30765412 113.85757668 88.9030453 113.78125 92.5 C113.75115771 94.93876972 113.72378064 97.37757456 113.69921875 99.81640625 C113.63306396 105.79503548 113.53265933 111.77235767 113.40625 117.75 C111.70939004 118.81923908 109.99324887 119.85792109 108.26953125 120.88330078 C107.31602783 121.46491974 106.36252441 122.0465387 105.38012695 122.64578247 C102.40625 123.75 102.40625 123.75 99.32263184 122.97897339 C96.17291805 121.40718097 93.32478161 119.59352163 90.40625 117.625 C89.27703237 116.91198301 88.14479245 116.20373275 87.00976562 115.5 C84.64099717 114.02430448 82.28850413 112.52670277 79.9453125 111.01074219 C74.36797714 107.42077283 68.62602075 104.10610886 62.90625 100.75 C60.64929511 99.40960229 58.39278481 98.06845569 56.13671875 96.7265625 C47.41184158 91.55654555 38.6191161 86.50563791 29.828125 81.44921875 C23.19586601 77.6333288 16.57947713 73.79055244 9.96875 69.9375 C8.94950439 69.34437012 7.93025879 68.75124023 6.88012695 68.14013672 C5.94128662 67.59244629 5.00244629 67.04475586 4.03515625 66.48046875 C2.7987439 65.75960083 2.7987439 65.75960083 1.53735352 65.02416992 C-0.20404285 63.98300282 -1.90559188 62.87543875 -3.59375 61.75 C-7.94270473 62.33054341 -11.58275437 64.80850192 -15.34375 66.9375 C-16.12814453 67.37747314 -16.91253906 67.81744629 -17.72070312 68.27075195 C-26.28873363 73.09983908 -34.77118241 78.07668655 -43.2578125 83.046875 C-49.64657011 86.78634601 -56.05492484 90.49122559 -62.46875 94.1875 C-63.53818848 94.80391357 -64.60762695 95.42032715 -65.70947266 96.05541992 C-67.88954765 97.31169835 -70.06972412 98.56780071 -72.25 99.82373047 C-76.86152425 102.48034016 -81.4722714 105.13829557 -86.08251953 107.79711914 C-88.26039882 109.05312898 -90.43844506 110.30884939 -92.61669922 111.56420898 C-93.61717285 112.14114502 -94.61764648 112.71808105 -95.6484375 113.3125 C-96.62474121 113.8691333 -97.60104492 114.4257666 -98.60693359 114.99926758 C-100.70402557 116.22848505 -102.77290733 117.5064995 -104.81884766 118.8190918 C-105.86862793 119.48078369 -106.9184082 120.14247559 -108 120.82421875 C-108.93908203 121.43612061 -109.87816406 122.04802246 -110.84570312 122.6784668 C-113.59375 123.75 -113.59375 123.75 -116.60498047 122.94335938 C-119.47855678 121.42524359 -121.96002288 119.65754115 -124.59375 117.75 C-125.43180176 117.45899414 -126.26985352 117.16798828 -127.13330078 116.86816406 C-130.44635199 115.52933232 -132.26301165 114.48997073 -134.59375 111.75 C-136.33505986 105.37188956 -135.52475839 98.40163936 -135.21875 91.875 C-135.16856223 90.02355684 -135.12293951 88.17198393 -135.08203125 86.3203125 C-134.97208458 81.79366577 -134.79972692 77.27325316 -134.59375 72.75 C-133.93181641 72.3689209 -133.26988281 71.9878418 -132.58789062 71.59521484 C-119.58165513 64.10521653 -106.58911406 56.59346895 -93.63208008 49.01855469 C-86.36559941 44.77398463 -79.07645526 40.56996197 -71.78125 36.375 C-63.98244389 31.88788787 -56.21085523 27.35934579 -48.4777832 22.75976562 C-46.23372668 21.42702821 -43.98618977 20.10013257 -41.73510742 18.77929688 C-36.52367313 15.71673199 -31.35047044 12.62151066 -26.2755127 9.3381958 C-23.95579049 7.8450092 -21.61488187 6.38729031 -19.27026367 4.93359375 C-17.63657535 3.90204103 -16.03344359 2.82258826 -14.43164062 1.7421875 C-8.93257136 -1.6374858 -5.9227503 -3.18989564 0 0 Z " fill="#000000" transform="translate(142.59375,88.25)"/>
<path d="M0 0 C0.86818359 0.53866699 1.73636719 1.07733398 2.63085938 1.63232422 C3.59507812 2.21014648 4.55929688 2.78796875 5.55273438 3.38330078 C6.51695312 3.97852539 7.48117188 4.57375 8.47460938 5.18701172 C10.18865077 6.15116 11.90730168 7.10716771 13.63085938 8.05419922 C25.23303901 14.56979436 36.72177412 21.25755427 48.15356445 28.06738281 C60.19023927 35.22994519 72.32446606 42.21897042 84.47460938 49.18701172 C81.20110039 51.89618599 77.91214636 54.24014549 74.25585938 56.40185547 C73.25071289 56.9998999 72.24556641 57.59794434 71.20996094 58.21411133 C70.14229492 58.84454346 69.07462891 59.47497559 67.97460938 60.12451172 C61.38199054 64.03387488 54.80232155 67.94924489 48.33398438 72.06201172 C47.38587891 72.66279541 46.43777344 73.2635791 45.4609375 73.88256836 C43.67253943 75.02106053 41.88969902 76.1683431 40.11328125 77.32543945 C39.30955078 77.83534424 38.50582031 78.34524902 37.67773438 78.87060547 C36.98325195 79.31976318 36.28876953 79.7689209 35.57324219 80.23168945 C32.93443823 81.43290396 31.35357621 81.55408815 28.47460938 81.18701172 C25.78320312 79.94946289 25.78320312 79.94946289 22.91210938 78.22998047 C21.34589844 77.30282227 21.34589844 77.30282227 19.74804688 76.35693359 C18.6678125 75.70273438 17.58757812 75.04853516 16.47460938 74.37451172 C15.394375 73.73191406 14.31414062 73.08931641 13.20117188 72.42724609 C4.95988314 67.51808336 4.95988314 67.51808336 1.87695312 65.41479492 C-0.36191679 64.01689263 -0.36191679 64.01689263 -2.4465332 64.29052734 C-5.33411156 65.53576372 -8.04136279 66.99646233 -10.78710938 68.53076172 C-11.37837112 68.85991577 -11.96963287 69.18906982 -12.57881165 69.52819824 C-13.82305233 70.22201175 -15.06604745 70.91806314 -16.30786133 71.61621094 C-18.21422067 72.68775933 -20.12430763 73.75239955 -22.03515625 74.81591797 C-27.61021258 77.56410273 -27.61021258 77.56410273 -32.52539062 81.18701172 C-37.22124736 81.79292872 -39.73552485 80.16735221 -43.65039062 77.68701172 C-44.9683676 76.86633928 -46.28747865 76.04748669 -47.60742188 75.22998047 C-48.36361816 74.75866699 -49.11981445 74.28735352 -49.89892578 73.80175781 C-54.74274413 70.82378658 -59.64801038 67.94813369 -64.5446167 65.05810547 C-72.88995243 60.13174139 -81.22295972 55.185402 -89.52539062 50.18701172 C-86.29272087 47.49619692 -83.09761865 45.24816364 -79.41210938 43.22607422 C-78.42428467 42.67967285 -77.43645996 42.13327148 -76.41870117 41.5703125 C-75.36078369 40.99007324 -74.30286621 40.40983398 -73.21289062 39.81201172 C-64.65632452 35.07140459 -56.14866219 30.26449307 -47.71289062 25.31201172 C-37.41916895 19.27237214 -27.07092817 13.33330473 -16.69995117 7.42773438 C-15.5762915 6.78755371 -14.45263184 6.14737305 -13.29492188 5.48779297 C-12.30081299 4.92229736 -11.3067041 4.35680176 -10.2824707 3.77416992 C-7.49867656 2.23868634 -7.49867656 2.23868634 -4.98706055 0.32788086 C-2.52539062 -0.81298828 -2.52539062 -0.81298828 0 0 Z " fill="#000000" transform="translate(139.525390625,174.81298828125)"/>
</svg>
